<svg id="Layer_1" enable-background="new 0 0 512 512" height="512" viewBox="0 0 512 512" width="512" xmlns="http://www.w3.org/2000/svg"><path d="m220.974 135.561c-8.836 0-16 7.164-16 16 0 8.431-6.859 15.29-15.29 15.29h-2.373v-67.92c0-8.836-7.164-16-16-16s-16 7.164-16 16c0 29.884.081 29.188-.019 29.188-8.431 0-15.289-6.859-15.289-15.29 0-8.836-7.164-16-16-16s-16 7.164-16 16c0 26.076 21.214 47.29 47.289 47.29.1 0 .019-1.771.019 78.593 0 8.836 7.164 16 16 16s16-7.164 16-16v-39.861c30.639 0 49.663-22.635 49.663-47.29 0-8.836-7.164-16-16-16z" fill="#91c656"/><path d="m212.357 226.814c-85.521 33.456-161.854 44.359-212.357 52.903v214.771h512v-205.06c-74.399 2.829-147.008-22.933-204.62-55.582-29.034-16.453-63.945-19.19-95.023-7.032z" fill="#c69a85"/><path d="m512 329.985c-77.286-.373-295.587-27.233-512 28.751v135.752h512z" fill="#9f7766"/><path d="m142.04 362.895c-32.638 14.968-91.923 35.645-142.04 39.923v108.372h512v-103.472c-128.612-3.763-243.998-16.906-335.799-46.775-11.234-3.655-23.422-2.973-34.161 1.952z" fill="#dfb7a4"/><path d="m512 407.718-136.673-82.569c-20.63-12.463-47.154-8.89-63.751 8.588l-47.156 49.661c73.636 14.412 157.345 21.68 247.58 24.32z" fill="#dfb7a4"/><path d="m42.996 187.246c-13.315 7.96-27.564 13.71-42.996 16.663v75.808c42.506-7.191 103.311-16.056 172.488-38.629-27.571-14.313-52.744-29.436-70.971-46.906-15.815-15.16-39.717-18.177-58.521-6.936z" fill="#c69a85"/><circle cx="449.247" cy="62.761" fill="#f0a567" r="61.935"/><path d="m498.889 25.721c-11.294-15.112-29.325-24.895-49.642-24.895-50.409 0-79.146 56.861-50.758 97.406 34.118-61.888 74.776-47.256 100.4-72.511z" fill="#fdaa6a"/><path d="m466.18 3.196c-35.668-10.122-71.69 13.058-77.928 48.869 18.447-36.942 62.211-25.882 77.928-48.869z" fill="#fcbc80"/><path d="m148.302 227.857c-44.141 13.702-124.447 24.253-148.302-10.91v62.77c42.506-7.191 103.311-16.056 172.488-38.629-8.324-4.322-16.424-8.719-24.186-13.231z" fill="#9f7766"/><path d="m113.584 204.643c-4.283-3.399-8.328-6.878-12.066-10.462-15.816-15.159-39.718-18.176-58.522-6.935-4.32 2.582-8.739 4.928-13.264 7.025 21.362 6.091 61.123 10.853 83.852 10.372z" fill="#dfb7a4"/><path d="m142.04 362.895c-32.638 14.968-91.923 35.645-142.04 39.923v108.372h367.123c-76.374-27.081-142.256-69.964-184.63-148.251-9.245-2.899-22.78-8.149-40.453-.044z" fill="#c69a85"/><path d="m157.009 358.856c-5.135.504-10.195 1.85-14.969 4.039-32.638 14.968-91.923 35.645-142.04 39.923v108.372h64.614c66.985-42.53 92.912-99.923 92.395-152.334z" fill="#9f7766"/><path d="m433.705 360.417c-23.81 14.437-103.478 17.549-158.005 11.102l-11.28 11.879c73.636 14.412 157.345 21.68 247.58 24.32z" fill="#c69a85"/><path d="m356.236 318.304c-16.117-2.357-32.886 3.034-44.66 15.434l-25.095 26.428c28.096-11.219 52.575-24.48 69.755-41.862z" fill="#e0c8bf"/><path d="m0 315.553c113.423-14.557 213.642-68.065 315.715-77.101-2.808-1.52-5.594-3.052-8.335-4.606-29.034-16.453-63.945-19.19-95.023-7.032-85.521 33.456-161.854 44.359-212.357 52.903z" fill="#dfb7a4"/><path d="m236.974 151.561c0-8.836-7.164-16-16-16s-16 7.164-16 16c0 8.431-6.859 15.29-15.29 15.29h-2.373v-67.92c0-8.836-7.164-16-16-16s-16 7.164-16 16v29.188c-8.494 0-15.308-6.896-15.308-15.29 0-8.836-7.164-16-16-16s-16 7.164-16 16c0 26.018 21.15 47.29 47.308 47.29v54.447c4.893-7.718 8.146-26.93 12.689-40.558 8-24 14-3 55.132 10.95 8.548-8.561 13.842-20.372 13.842-33.397z" fill="#9bd65e"/><g fill="#c0f28b"><path d="m187.311 115.13v-16.2c0-8.836-7.164-16-16-16s-16 7.164-16 16v27.821c16.949-6.413 22.089-6.234 32-11.621z"/><path d="m140.003 112.829c0-8.836-7.164-16-16-16s-16 7.164-16 16c0 11.045 3.816 21.209 10.185 29.266 9.96-3.854 21.654-9.329 34.273-14.25-7.081-1.332-12.458-7.553-12.458-15.016z"/></g></svg>