<svg height="480pt" viewBox="0 -56 480 480" width="480pt" xmlns="http://www.w3.org/2000/svg"><path d="m8 72h464v288h-464zm0 0" fill="#5a6470"/><path d="m320 72h-160l20-64h120zm0 0" fill="#aabece"/><path d="m352 216c0 61.855469-50.144531 112-112 112s-112-50.144531-112-112 50.144531-112 112-112 112 50.144531 112 112zm0 0" fill="#aabece"/><path d="m320 216c0 44.183594-35.816406 80-80 80s-80-35.816406-80-80 35.816406-80 80-80 80 35.816406 80 80zm0 0" fill="#cfdfe8"/><path d="m264 216c0 13.253906-10.746094 24-24 24s-24-10.746094-24-24 10.746094-24 24-24 24 10.746094 24 24zm0 0" fill="#5a6470"/><path d="m32 40h80v32h-80zm0 0" fill="#aabece"/><path d="m360 104h80v40h-80zm0 0" fill="#f4f4e6"/><path d="m72 120c0 8.835938-7.164062 16-16 16s-16-7.164062-16-16 7.164062-16 16-16 16 7.164062 16 16zm0 0" fill="#f98c96"/><path d="m32 160h16v176h-16zm0 0" fill="#ffd782"/><path d="m384 176h88v184h-88zm0 0" fill="#aabece"/><g fill="#5a6470"><path d="m408 208h64v16h-64zm0 0"/><path d="m408 240h64v16h-64zm0 0"/><path d="m408 272h64v16h-64zm0 0"/><path d="m408 304h64v16h-64zm0 0"/></g><path d="m383 40h50c8.285156 0 15 6.714844 15 15v17h-80v-17c0-8.285156 6.714844-15 15-15zm0 0" fill="#aabece"/><path d="m208 40h64v32h-64zm0 0" fill="#ffd782"/><path d="m240 96c-66.273438 0-120 53.726562-120 120s53.726562 120 120 120 120-53.726562 120-120c-.074219-66.242188-53.757812-119.925781-120-120zm0 224c-57.4375 0-104-46.5625-104-104s46.5625-104 104-104 104 46.5625 104 104c-.066406 57.410156-46.589844 103.933594-104 104zm0 0"/><path d="m240 128c-48.601562 0-88 39.398438-88 88s39.398438 88 88 88 88-39.398438 88-88c-.058594-48.578125-39.421875-87.941406-88-88zm0 160c-39.765625 0-72-32.234375-72-72s32.234375-72 72-72 72 32.234375 72 72c-.046875 39.746094-32.253906 71.953125-72 72zm0 0"/><path d="m240 184c-17.671875 0-32 14.328125-32 32s14.328125 32 32 32 32-14.328125 32-32-14.328125-32-32-32zm0 48c-8.835938 0-16-7.164062-16-16s7.164062-16 16-16 16 7.164062 16 16-7.164062 16-16 16zm0 0"/><path d="m352 152h96v-56h-96zm16-40h64v24h-64zm0 0"/><path d="m56 96c-13.253906 0-24 10.746094-24 24s10.746094 24 24 24 24-10.746094 24-24-10.746094-24-24-24zm0 32c-4.417969 0-8-3.582031-8-8s3.582031-8 8-8 8 3.582031 8 8-3.582031 8-8 8zm0 0"/><path d="m32 160h16v176h-16zm0 0"/><path d="m456 55c-.019531-12.695312-10.304688-22.980469-23-23h-50c-12.695312.019531-22.980469 10.304688-23 23v9h-34.121094l-20-64h-131.757812l-20 64h-34.121094v-32h-96v32h-24v304h480v-304h-24zm-80 0c.007812-3.863281 3.136719-6.992188 7-7h50c3.863281.007812 6.992188 3.136719 7 7v9h-64zm-190.121094-39h108.242188l15 48h-29.121094v-32h-80v32h-29.121094zm78.121094 32v16h-48v-16zm-224 0h64v16h-64zm424 160h-56v16h56v16h-56v16h56v16h-56v16h56v16h-56v16h56v32h-72v-168h72zm0-128v88h-88v184h-360v-272zm0 0"/></svg>